<svg width="400" height="1024" viewBox="0 0 400 1024" fill="none" xmlns="http://www.w3.org/2000/svg">
<path d="M400 143H0V743H400V143Z" fill="#5D9C90"/>
<path d="M400 543H0V743H400V543Z" fill="#D4A76A"/>
<g opacity="0.3">
<path d="M0 568H400ZM0 593H400ZM0 618H400ZM0 643H400Z" fill="black"/>
<path d="M0 568H400M0 593H400M0 618H400M0 643H400" stroke="#B58C5A"/>
</g>
<path d="M325 443H75V458H325V443Z" fill="#BF895A"/>
<path d="M350 458H50V470.5H350V458Z" fill="#A67C52"/>
<path d="M105 458H90V543H105V458Z" fill="#8C5E3B"/>
<path d="M310 458H295V543H310V458Z" fill="#8C5E3B"/>
<path d="M150 448C161.046 448 170 439.046 170 428C170 416.954 161.046 408 150 408C138.954 408 130 416.954 130 428C130 439.046 138.954 448 150 448Z" fill="#E74C3C"/>
<path d="M150 408V398Z" fill="black"/>
<path d="M150 408V398" stroke="#2C3E50"/>
<path d="M147.5 400.5C148.328 400.5 149 399.381 149 398C149 396.619 148.328 395.5 147.5 395.5C146.672 395.5 146 396.619 146 398C146 399.381 146.672 400.5 147.5 400.5Z" fill="#27AE60"/>
<path d="M200 423C216.667 413 233.333 413 250 423C243.333 436.333 230 446.333 210 453C196.667 439.667 193.333 429.667 200 423Z" fill="#F1C40F"/>
<path d="M175 468C183.284 468 190 461.284 190 453C190 444.716 183.284 438 175 438C166.716 438 160 444.716 160 453C160 461.284 166.716 468 175 468Z" fill="#F39C12"/>
<path d="M190 452C197.732 452 204 445.732 204 438C204 430.268 197.732 424 190 424C182.268 424 176 430.268 176 438C176 445.732 182.268 452 190 452Z" fill="#F39C12"/>
<path d="M250 433C266.667 426.333 283.333 426.333 300 433C293.333 446.333 280 454.667 260 458C253.333 448 250 439.667 250 433Z" fill="#E74C3C"/>
<path d="M250 433C266.667 426.333 283.333 426.333 300 433" stroke="#2C3E50" stroke-width="0.75"/>
<path d="M270 445.5C271.381 445.5 272.5 444.381 272.5 443C272.5 441.619 271.381 440.5 270 440.5C268.619 440.5 267.5 441.619 267.5 443C267.5 444.381 268.619 445.5 270 445.5Z" fill="#2C3E50"/>
<path d="M330 418H325V458H330V418Z" fill="#BDC3C7"/>
<path d="M325 418H330L327.5 408L325 418Z" fill="#7F8C8D"/>
<path d="M100 433C116.667 423 133.333 423 150 433C153.333 446.333 145 456.333 125 463C108.333 456.333 100 446.333 100 433Z" fill="#F2F2F2" stroke="#BF895A" stroke-width="1.5"/>
<path opacity="0.8" d="M125 440.5C141.569 440.5 155 437.142 155 433C155 428.858 141.569 425.5 125 425.5C108.431 425.5 95 428.858 95 433C95 437.142 108.431 440.5 125 440.5Z" fill="#BF895A"/>
<path d="M125 193H25V318H125V193Z" fill="#AED6F1" stroke="#3498DB" stroke-width="1.5"/>
<path d="M25 255.5H125" stroke="#3498DB"/>
<path d="M75 193V318" stroke="#3498DB"/>
<path d="M375 193H250V343H375V193Z" fill="#A67C52" stroke="#8C5E3B" stroke-width="1.5"/>
<path d="M370 198H255V265.5H370V198Z" fill="#BF895A"/>
<path d="M370 270.5H255V338H370V270.5Z" fill="#BF895A"/>
</svg>
