<svg width="221" height="45" viewBox="0 0 221 45" fill="none" xmlns="http://www.w3.org/2000/svg">
<g clip-path="url(#clip0_4_6)">
<path fill-rule="evenodd" clip-rule="evenodd" d="M48.9258 14.8152C48.8599 14.8152 48.7924 14.8228 48.7249 14.8387C46.5941 15.337 41.9568 16.6411 37.2657 19.387C37.2546 19.688 37.2487 19.988 37.2312 20.2917C36.9326 25.399 35.6759 30.0096 33.4967 33.9962C31.639 37.3945 29.1011 40.3464 25.9282 42.8191C26.0515 42.7629 26.1705 42.7082 26.2975 42.6514C31.6985 40.0306 36.8247 36.1521 40.6198 31.3913C40.7505 31.2274 40.9705 31.0471 41.1352 31.1749C41.292 31.3104 41.1948 31.5645 41.0858 31.7344C38.3811 35.9663 35.1041 39.7427 31.3005 42.9595C30.9997 43.2136 30.344 43.9583 29.9752 43.9981C36.8003 43.2573 47.4119 38.3812 49.8143 15.8292C49.8732 15.2747 49.4407 14.8152 48.9258 14.8152ZM12.8398 26.3239C8.25458 22.8563 3.01943 21.3577 0.886474 20.8594C0.831742 20.8463 0.77701 20.8403 0.723341 20.8403C0.306739 20.8403 -0.0434394 21.2123 0.00438467 21.6614C0.537358 26.5971 1.60437 31.6437 4.03968 35.9871C6.57595 40.5114 10.4991 43.5261 15.509 44.3937C12.0433 41.5543 9.30033 38.3244 6.97129 34.4644C6.69285 34.0028 7.24867 33.9804 7.48992 34.2497C10.1048 37.171 12.8776 39.5586 16.2141 41.5833C16.4628 41.7341 16.7147 41.8723 16.9655 42.0062C14.95 38.9904 12.6183 34.1039 12.7623 27.7586C12.7729 27.2806 12.8016 26.802 12.8398 26.3239ZM24.2831 42.0226C27.7084 39.6596 30.5672 36.2357 32.4732 32.4883C35.4224 26.69 36.1148 19.9847 35.492 13.5439C35.0674 9.15563 34.0791 4.78925 32.5758 0.657251C32.4233 0.237659 32.0418 0 31.6496 0C31.4285 0 31.2038 0.0753952 31.0146 0.234928C5.4473 21.8122 15.9181 38.4211 19.7021 42.9814C19.9019 42.6487 20.1176 42.2695 20.353 41.8494C21.0305 40.5862 21.6538 39.293 22.2298 37.978C26.4495 28.3438 28.7844 17.9785 30.8419 7.67066C30.8722 7.5166 31.0125 7.42153 31.1559 7.45158C31.292 7.47944 31.3823 7.61111 31.3674 7.74988C30.8754 12.3293 30.3823 19.6831 28.9141 26.4458C27.1318 34.6535 24.3708 41.9619 24.2831 42.0226Z" fill="#64EE85"/>
<path d="M61.5771 38.8312V37.5463C63.1217 35.8806 63.9642 33.5963 63.9642 31.312V23.412C63.9642 21.0801 63.1217 18.8434 61.5771 17.1777V15.8452H69.0193V18.5103C70.6107 17.6061 72.4362 17.035 74.1212 17.035C79.5976 17.035 82.5932 20.4139 82.5932 28.647V31.312C82.5932 33.5963 83.4825 35.8806 85.074 37.5463V38.8312H75.0574V37.5463C76.6488 35.8806 77.5381 33.5963 77.5381 31.312V25.5536C77.5381 21.8416 74.2148 18.1771 70.9384 19.0814C69.7682 19.4145 69.0193 20.5566 69.0193 21.794V31.3596C69.0193 33.5963 69.9555 35.8806 71.4533 37.5463V38.8312H61.5771ZM105.856 38.8312L104.592 38.4981C102.486 37.927 100.192 37.927 98.2266 38.5457C97.4309 38.7836 96.682 38.8312 95.9331 38.8312C91.346 38.8312 87.6951 35.1668 87.6951 30.5506C87.6951 26.0295 91.346 22.3175 95.9331 22.3175C97.7585 22.3175 99.3967 22.8886 100.661 23.7928V23.7452C100.661 23.7452 101.035 17.9392 98.5074 17.2253C95.8863 16.4639 94.9501 18.0344 93.0311 20.985L89.0993 20.9374C90.3163 17.7964 92.7034 15.6073 96.0735 15.6073C97.3373 15.6073 98.6478 15.8452 99.9116 16.2259C99.9116 16.2259 105.856 18.082 105.856 23.7452V38.8312ZM91.4864 31.7403C92.563 35.3096 95.231 37.8318 97.9457 37.2132C100.567 36.5945 101.784 33.1204 100.707 29.4084C99.6776 25.8867 96.6352 23.3645 94.014 24.0307C91.346 24.697 90.4099 28.1235 91.4864 31.7403ZM112.409 30.4554V17.7964H108.945V15.8452H112.409V7.94528L117.511 5.4706V15.8452H120.881V17.7964H117.511V30.1698C117.511 32.0258 118.213 33.6439 119.102 34.8337C119.617 35.5475 120.226 36.071 120.881 36.4517V39.0692C119.804 39.0216 118.681 38.7836 117.511 38.3077C114.796 37.1656 112.409 34.8337 112.409 30.4554ZM125.187 27.6952L125.14 21.3181C125.14 20.3187 124.859 19.4621 124.345 18.653L123.502 17.1777V15.8452H131.506V17.1777L130.663 18.5103C130.102 19.3669 129.587 20.5091 129.587 21.4609L129.821 31.4548C129.915 34.5005 132.629 36.5469 135.672 36.5469C140.259 36.5469 141.382 33.406 141.382 30.3602V20.9374C141.382 19.5097 140.774 18.1771 139.744 17.2729V15.8452H144.986V17.2729L144.612 17.7012C143.676 18.653 143.254 19.8428 143.254 21.1277V31.2168C143.254 33.1204 142.88 39.0692 135.485 39.0692C129.634 39.0692 125.281 37.3083 125.187 27.6952ZM181.683 39.0692L180.372 38.7836C179.389 38.5933 178.406 38.3077 177.376 38.3553C175.504 38.3553 173.632 39.0692 171.76 39.0692C167.219 39.0692 163.522 35.1668 163.522 30.5981C163.522 26.0771 167.219 22.3651 171.76 22.3651C173.538 22.3651 175.13 22.8886 176.581 23.7928V23.7452C176.581 22.1747 176.627 17.1302 173.211 17.1302C171.338 17.1302 170.449 18.4627 168.904 20.9374H164.832C166.143 17.7964 168.53 15.6073 171.853 15.6073C176.113 15.6073 181.683 18.3199 181.683 23.7452V39.0692ZM147.982 38.8312V37.4987C149.48 35.8331 150.322 33.5963 150.322 31.4072V23.412C150.322 21.1753 149.48 18.9386 147.982 17.2729V15.8452H155.518V18.1771C156.641 16.8922 159.309 15.6073 161.462 15.6073C163.943 15.6073 165.956 16.6543 165.956 16.6543C164.785 17.844 163.99 19.1289 163.334 20.6518C163.334 20.6518 161.696 18.9862 159.262 18.9862C155.986 18.9862 155.518 21.2705 155.518 21.8892V31.4072C155.518 33.5963 156.36 35.8331 157.905 37.4987V38.8312H147.982ZM172.93 37.5463C175.457 37.5463 177.002 34.7861 177.002 32.0734C177.002 27.6 173.632 23.9355 170.636 23.9355C168.249 23.9355 166.845 26.1247 166.845 28.8849C166.845 33.3108 169.981 37.5463 172.93 37.5463ZM185.427 38.8312V37.5463C186.831 35.8806 187.674 33.5963 187.674 31.312V13.085C187.674 10.8007 186.831 8.56395 185.474 6.94589V5.51819H192.354V31.3596C192.354 33.5963 193.197 35.8806 194.648 37.5463V38.8312H185.427ZM216.787 31.5499H220.251C218.613 36.071 214.307 39.3071 209.111 39.3071C202.511 39.3071 197.269 33.9294 197.269 27.4572C197.269 20.8422 202.511 15.4645 209.111 15.4645C215.617 15.4645 220.906 20.6994 221 27.2193H201.997C202.184 27.7903 202.277 28.409 202.465 29.0753C203.962 34.3102 207.52 38.0698 211.124 38.0698C214.494 38.0698 216.319 34.8337 216.787 31.5499ZM201.763 25.2681H216.132C214.541 20.3187 210.796 17.1777 207.286 17.1777C203.728 17.1777 201.716 20.6518 201.716 24.2211C201.716 24.5542 201.716 24.9349 201.763 25.2681Z" fill="black"/>
</g>
<defs>
<clipPath id="clip0_4_6">
<rect width="221" height="45" fill="white"/>
</clipPath>
</defs>
</svg>
